<svg version="1.1" viewBox="0.000000 0.000000 96.000000 96.000000" xmlns="http://www.w3.org/2000/svg" xmlns:xlink="http://www.w3.org/1999/xlink" id="Icons_BrainInhead" overflow="hidden"><path d=" M 59.700001 40.799999 L 50.799999 40.799999 C 47.000000 40.799999 43.900002 43.799999 43.900002 47.599998 L 43.900002 55.000000 L 39.400002 55.000000 L 39.400002 49.099998 C 39.400002 47.000000 39.500000 44.299999 38.000000 42.599998 C 37.099998 41.599998 36.099998 40.799999 35.000000 40.000000 C 34.200001 39.500000 33.400002 38.900002 32.799999 38.099998 C 32.500000 37.700001 32.299999 37.200001 32.099998 36.700001 C 33.299999 36.200001 34.599998 36.099998 35.799999 36.200001 C 36.400002 36.200001 36.900002 35.799999 36.900002 35.200001 C 37.000000 34.599998 36.599998 34.099998 36.099998 33.900002 C 34.599998 33.700001 33.000000 33.900002 31.500000 34.400002 C 31.500000 34.200001 31.500000 34.000000 31.400000 33.900002 C 31.299999 33.000000 31.500000 32.099998 31.700001 31.200001 C 32.500000 29.100000 34.500000 28.200001 36.400002 27.500000 C 36.700001 27.400000 37.099998 27.299999 37.599998 27.200001 L 37.900002 27.100000 L 38.000000 27.100000 C 38.500000 27.200001 38.900002 27.299999 39.299999 27.400000 L 39.799999 27.500000 L 40.400002 27.600000 C 41.400002 28.799999 41.900002 30.299999 41.799999 31.799999 C 41.700001 33.299999 41.000000 34.700001 39.799999 35.700001 C 39.400002 36.099998 39.299999 36.799999 39.700001 37.299999 C 40.099998 37.700001 40.700001 37.799999 41.200001 37.400002 C 41.900002 36.799999 42.500000 36.099998 42.900002 35.299999 L 43.000000 35.299999 C 44.700001 35.099998 46.400002 34.599998 47.900002 33.799999 C 48.099998 33.599998 48.299999 33.400002 48.400002 33.099998 C 48.500000 32.799999 48.400002 32.500000 48.200001 32.299999 C 47.799999 31.799999 47.200001 31.700001 46.700001 32.000000 C 45.799999 32.500000 44.900002 32.900002 43.799999 33.000000 C 43.900002 32.700001 44.000000 32.299999 44.000000 32.000000 C 44.099998 30.700001 43.900002 29.400000 43.400002 28.299999 C 44.200001 28.400000 45.000000 28.500000 45.799999 28.500000 C 46.500000 28.500000 47.200001 28.400000 47.900002 28.299999 C 49.200001 29.900000 50.900002 31.000000 52.900002 31.500000 C 55.500000 32.799999 57.900002 34.500000 57.900002 37.299999 C 57.900002 37.700001 58.099998 38.200001 58.400002 38.400002 C 58.799999 38.599998 59.200001 38.599998 59.599998 38.400002 C 60.000000 38.200001 60.200001 37.700001 60.099998 37.299999 C 60.099998 35.099998 59.099998 33.099998 57.400002 31.799999 C 58.799999 31.700001 60.000000 31.000000 60.900002 30.000000 C 61.299999 29.500000 61.200001 28.799999 60.799999 28.400000 C 60.299999 28.000000 59.599998 28.100000 59.200001 28.500000 C 58.700001 29.100000 57.400002 29.600000 55.500000 29.500000 C 53.599998 29.500000 51.700001 28.799999 50.299999 27.600000 C 51.900002 26.900000 53.299999 25.700001 54.200001 24.200001 C 54.500000 23.700001 54.299999 23.000000 53.799999 22.600000 C 53.299999 22.299999 52.599998 22.500000 52.299999 23.000000 C 50.599998 26.100000 47.000000 27.000000 41.299999 25.600000 C 42.599998 24.500000 43.200001 22.799999 43.000000 21.100000 C 43.000000 20.700001 42.799999 20.299999 42.400002 20.100000 C 42.000000 19.900000 41.599998 19.900000 41.200001 20.200001 C 40.799999 20.400000 40.700001 20.900000 40.700001 21.299999 C 40.799999 23.900000 39.400002 24.400000 37.099998 25.100000 C 36.799999 25.200001 36.400002 25.299999 36.099998 25.400000 C 35.500000 24.000000 34.200001 22.900000 32.700001 22.500000 C 32.299999 22.400000 31.900000 22.500000 31.600000 22.799999 C 31.299999 23.100000 31.200001 23.500000 31.299999 24.000000 C 31.400000 24.400000 31.700001 24.700001 32.200001 24.799999 C 33.000000 25.000000 33.599998 25.600000 34.000000 26.299999 L 34.000000 26.400000 C 32.099998 27.200001 30.600000 28.700001 29.900000 30.600000 C 29.700001 31.000000 29.600000 31.500000 29.600000 32.000000 C 29.400000 31.799999 29.200001 31.600000 29.100000 31.299999 C 28.700001 30.500000 28.400000 29.500000 28.299999 28.600000 C 28.200001 28.200001 27.900000 27.799999 27.600000 27.700001 C 27.200001 27.500000 26.799999 27.600000 26.500000 27.900000 C 26.200001 28.200001 26.000000 28.600000 26.200001 29.000000 C 26.400000 30.200001 26.700001 31.299999 27.299999 32.299999 C 27.900000 33.299999 28.700001 34.099998 29.799999 34.599998 C 29.900000 36.000000 30.400000 37.400002 31.100000 38.700001 C 30.400000 39.599998 29.500000 40.299999 28.500000 40.900002 C 28.200001 41.099998 28.000000 41.500000 27.900000 41.900002 C 27.900000 42.299999 28.100000 42.700001 28.500000 42.900002 C 28.900000 43.099998 29.299999 43.099998 29.600000 42.799999 C 30.600000 42.099998 31.500000 41.400002 32.299999 40.500000 C 32.900002 41.000000 33.500000 41.400002 34.099998 41.799999 C 35.099998 42.400002 35.900002 43.099998 36.700001 44.000000 C 37.599998 45.099998 37.599998 47.200001 37.599998 49.000000 L 37.599998 55.000000 L 33.000000 55.000000 C 33.000000 47.599998 29.400000 47.200001 29.000000 47.000000 C 27.500000 46.599998 23.600000 44.500000 22.700001 40.299999 C 22.600000 40.099998 22.600000 39.799999 22.600000 39.599998 C 20.900000 37.200001 21.000000 33.900002 22.900000 31.600000 C 22.700001 30.900000 22.600000 30.200001 22.600000 29.500000 C 22.600000 26.299999 24.900000 23.500000 28.100000 22.900000 C 29.100000 20.100000 31.700001 18.200001 34.599998 18.299999 C 35.099998 18.299999 35.700001 18.400000 36.200001 18.500000 C 37.400002 17.100000 39.099998 16.299999 41.000000 16.100000 C 42.900002 16.000000 44.700001 16.600000 46.099998 17.900000 C 47.900002 16.700001 50.099998 16.400000 52.099998 17.000000 C 54.200001 17.600000 55.799999 19.200001 56.500000 21.200001 L 56.900002 21.200001 C 60.700001 21.200001 63.700001 24.200001 63.799999 28.000000 L 63.799999 28.299999 C 66.099998 29.600000 67.400002 32.099998 67.199997 34.700001 C 66.400002 38.200001 63.299999 40.900002 59.700001 40.799999 Z M 81.000000 51.299999 L 74.099998 39.400002 L 74.099998 39.000000 C 74.500000 28.000000 68.900002 17.700001 59.400002 12.200000 C 49.900002 6.600000 38.200001 6.600000 28.700001 12.200000 C 19.200001 17.700001 13.600000 28.000000 14.000000 39.000000 C 14.000000 48.400002 18.299999 57.299999 25.799999 63.000000 L 25.799999 88.000000 L 57.400002 88.000000 L 57.400002 76.099998 L 62.299999 76.099998 C 65.500000 76.099998 68.500000 74.900002 70.699997 72.599998 C 72.900002 70.400002 74.099998 67.300003 74.099998 64.199997 L 74.099998 58.200001 L 78.500000 58.200001 C 81.099998 58.000000 83.400002 55.000000 81.000000 51.299999 Z" stroke="none" stroke-width="1.000000" stroke-linecap="butt" fill="#00FFFB" fill-opacity="1.000000"/></svg>