<?xml version="1.0" standalone="yes"?><svg xmlns="http://www.w3.org/2000/svg" xmlns:xlink="http://www.w3.org/1999/xlink" version="1.1" viewBox="0.000000 0.000000 96.000000 96.000000" id="Icons_Building" overflow="hidden" style="zoom: 1;"><g><path stroke="none" stroke-width="1.000000" d="M65.000000,29.000000 L59.000000,29.000000 L59.000000,23.000000 L65.000000,23.000000 L65.000000,29.000000  Z M65.000000,45.000000 L59.000000,45.000000 L59.000000,39.000000 L65.000000,39.000000 L65.000000,45.000000  Z M65.000000,61.000000 L59.000000,61.000000 L59.000000,55.000000 L65.000000,55.000000 L65.000000,61.000000  Z M65.000000,77.000000 L59.000000,77.000000 L59.000000,71.000000 L65.000000,71.000000 L65.000000,77.000000  Z M51.000000,29.000000 L45.000000,29.000000 L45.000000,23.000000 L51.000000,23.000000 L51.000000,29.000000  Z M51.000000,45.000000 L45.000000,45.000000 L45.000000,39.000000 L51.000000,39.000000 L51.000000,45.000000  Z M51.000000,61.000000 L45.000000,61.000000 L45.000000,55.000000 L51.000000,55.000000 L51.000000,61.000000  Z M51.000000,83.000000 L45.000000,83.000000 L45.000000,71.000000 L51.000000,71.000000 L51.000000,83.000000  Z M37.000000,29.000000 L31.000000,29.000000 L31.000000,23.000000 L37.000000,23.000000 L37.000000,29.000000  Z M37.000000,45.000000 L31.000000,45.000000 L31.000000,39.000000 L37.000000,39.000000 L37.000000,45.000000  Z M37.000000,61.000000 L31.000000,61.000000 L31.000000,55.000000 L37.000000,55.000000 L37.000000,61.000000  Z M37.000000,77.000000 L31.000000,77.000000 L31.000000,71.000000 L37.000000,71.000000 L37.000000,77.000000  Z M72.000000,83.000000 L72.000000,16.000000 L69.000000,16.000000 L69.000000,10.000000 L66.000000,10.000000 L66.000000,6.000000 L30.000000,6.000000 L30.000000,10.000000 L27.000000,10.000000 L27.000000,16.000000 L24.000000,16.000000 L24.000000,83.000000 L20.000000,83.000000 L20.000000,90.000000 L76.000000,90.000000 L76.000000,83.000000 L72.000000,83.000000  Z " fill="#fefd02" stroke-linecap="butt" fill-opacity="1.000000"></path></g></svg>