<?xml version="1.0" standalone="yes"?><svg xmlns="http://www.w3.org/2000/svg" xmlns:xlink="http://www.w3.org/1999/xlink" version="1.1" viewBox="0.000000 0.000000 96.000000 96.000000" id="Icons_Envelope" overflow="hidden" style="zoom: 1;"><path stroke="none" stroke-width="1.000000" d="M8.000000,20.000000 L8.000000,76.000000 L88.000000,76.000000 L88.000000,20.000000 L8.000000,20.000000  Z M49.400002,54.900002 C48.599998,55.700001 47.400002,55.700001 46.599998,54.900002 L17.000000,26.000000 L79.099998,26.000000 L49.400002,54.900002  Z M33.500000,47.700001 L14.000000,67.300003 L14.000000,28.600000 L33.500000,47.700001  Z M36.400002,50.500000 L43.900002,57.799999 C45.099998,58.900002 46.599998,59.500000 48.099998,59.500000 C49.599998,59.500000 51.099998,58.900002 52.299999,57.799999 L59.799999,50.500000 L79.199997,70.000000 L16.900000,70.000000 L36.400002,50.500000  Z M62.500000,47.700001 L82.000000,28.700001 L82.000000,67.199997 L62.500000,47.700001  Z " fill="#fefd02" stroke-linecap="butt" fill-opacity="1.000000"></path></svg>