<svg version="1.1" viewBox="0.000000 0.000000 96.000000 96.000000" xmlns="http://www.w3.org/2000/svg" xmlns:xlink="http://www.w3.org/1999/xlink" id="Icons_Coffee" overflow="hidden"><path d=" M 79.199997 59.200001 C 79.199997 51.000000 72.800003 44.400002 64.699997 44.000000 L 64.699997 38.000000 L 16.700001 38.000000 L 16.700001 84.000000 C 16.700001 86.199997 18.500000 88.000000 20.700001 88.000000 L 60.700001 88.000000 C 62.900002 88.000000 64.699997 86.199997 64.699997 84.000000 L 64.699997 74.500000 C 72.800003 74.099998 79.199997 67.400002 79.199997 59.200001 Z M 64.800003 68.500000 L 64.800003 50.000000 C 69.599998 50.400002 73.300003 54.400002 73.300003 59.200001 C 73.300003 64.000000 69.500000 68.099998 64.800003 68.500000 Z" stroke="none" stroke-width="1.000000" stroke-linecap="butt" fill="#AFABAB" fill-opacity="1.000000"/><path d=" M 38.900002 18.500000 C 39.500000 19.100000 39.799999 19.799999 39.799999 20.600000 C 39.799999 21.400000 39.500000 22.200001 38.900002 22.700001 C 38.099998 23.500000 38.099998 24.700001 38.900002 25.500000 C 39.299999 25.900000 39.799999 26.100000 40.299999 26.100000 C 40.799999 26.100000 41.299999 25.900000 41.700001 25.500000 C 43.000000 24.200001 43.799999 22.400000 43.799999 20.500000 C 43.799999 18.600000 43.099998 16.900000 41.700001 15.600000 C 41.700001 15.600000 41.700001 15.600000 41.700001 15.600000 C 40.500000 14.400000 40.500000 12.500000 41.700001 11.400000 C 42.500000 10.600000 42.500000 9.400000 41.700001 8.600000 C 40.900002 7.800000 39.700001 7.800000 38.900002 8.600000 C 36.099998 11.300000 36.099998 15.800000 38.900002 18.500000 C 38.900002 18.500000 38.900002 18.500000 38.900002 18.500000 Z" stroke="none" stroke-width="1.000000" stroke-linecap="butt" fill="#AFABAB" fill-opacity="1.000000"/><path d=" M 49.799999 24.299999 C 51.000000 25.500000 51.000000 27.400000 49.799999 28.500000 C 49.000000 29.299999 49.000000 30.500000 49.799999 31.299999 C 50.200001 31.700001 50.700001 31.900000 51.200001 31.900000 C 51.700001 31.900000 52.200001 31.700001 52.599998 31.299999 C 55.299999 28.600000 55.299999 24.100000 52.599998 21.400000 C 52.599998 21.400000 52.599998 21.400000 52.599998 21.400000 C 52.000000 20.799999 51.700001 20.100000 51.700001 19.299999 C 51.700001 18.500000 52.000000 17.700001 52.599998 17.200001 C 53.400002 16.400000 53.400002 15.200000 52.599998 14.400000 C 51.799999 13.600000 50.599998 13.600000 49.799999 14.400000 C 48.500000 15.700000 47.700001 17.500000 47.700001 19.400000 C 47.799999 21.299999 48.500000 23.000000 49.799999 24.299999 C 49.799999 24.299999 49.799999 24.299999 49.799999 24.299999 Z" stroke="none" stroke-width="1.000000" stroke-linecap="butt" fill="#AFABAB" fill-opacity="1.000000"/><path d=" M 28.900000 24.299999 C 29.500000 24.900000 29.799999 25.600000 29.799999 26.400000 C 29.799999 27.200001 29.500000 28.000000 28.900000 28.500000 C 28.100000 29.299999 28.100000 30.500000 28.900000 31.299999 C 29.299999 31.700001 29.799999 31.900000 30.299999 31.900000 C 30.799999 31.900000 31.299999 31.700001 31.700001 31.299999 C 33.000000 30.000000 33.799999 28.200001 33.799999 26.299999 C 33.799999 24.400000 33.099998 22.700001 31.700001 21.299999 L 31.700001 21.299999 C 30.500000 20.100000 30.500000 18.200001 31.700001 17.100000 C 32.500000 16.299999 32.500000 15.100000 31.700001 14.300000 C 30.900000 13.500000 29.700001 13.500000 28.900000 14.300000 C 26.100000 17.200001 26.100000 21.600000 28.900000 24.299999 C 28.900000 24.299999 28.900000 24.299999 28.900000 24.299999 Z" stroke="none" stroke-width="1.000000" stroke-linecap="butt" fill="#AFABAB" fill-opacity="1.000000"/></svg>