<svg version="1.1" viewBox="0.000000 0.000000 96.000000 96.000000" xmlns="http://www.w3.org/2000/svg" xmlns:xlink="http://www.w3.org/1999/xlink" id="Icons_HappyFaceSolid" overflow="hidden"><g><g><path d=" M 48.000000 10.000000 C 27.000000 10.000000 10.000000 27.000000 10.000000 48.000000 C 10.000000 69.000000 27.000000 86.000000 48.000000 86.000000 C 69.000000 86.000000 86.000000 69.000000 86.000000 48.000000 C 86.000000 27.000000 69.000000 10.000000 48.000000 10.000000 Z M 26.000000 42.000000 C 26.000000 38.700001 28.700001 36.000000 32.000000 36.000000 C 35.299999 36.000000 38.000000 38.700001 38.000000 42.000000 C 38.000000 45.299999 35.299999 48.000000 32.000000 48.000000 C 28.700001 48.000000 26.000000 45.299999 26.000000 42.000000 Z M 67.800003 64.199997 C 63.200001 70.199997 56.099998 74.000000 48.000000 74.000000 C 39.900002 74.000000 32.799999 70.199997 28.200001 64.199997 C 28.000000 63.900002 27.799999 63.500000 27.799999 63.000000 C 27.799999 61.900002 28.700001 61.000000 29.799999 61.000000 C 30.500000 61.000000 31.100000 61.299999 31.400000 61.799999 C 35.200001 66.800003 41.200001 69.900002 48.000000 69.900002 C 54.799999 69.900002 60.700001 66.800003 64.599998 61.799999 C 65.000000 61.299999 65.599998 61.000000 66.199997 61.000000 C 67.300003 61.000000 68.199997 61.900002 68.199997 63.000000 C 68.199997 63.500000 68.000000 63.900002 67.800003 64.199997 Z M 64.000000 48.000000 C 60.700001 48.000000 58.000000 45.299999 58.000000 42.000000 C 58.000000 38.700001 60.700001 36.000000 64.000000 36.000000 C 67.300003 36.000000 70.000000 38.700001 70.000000 42.000000 C 70.000000 45.299999 67.300003 48.000000 64.000000 48.000000 Z" stroke="none" stroke-width="1.000000" stroke-linecap="butt" fill="#00FFFB" fill-opacity="1.000000"/></g></g></svg>