<svg version="1.1" viewBox="0.000000 0.000000 96.000000 96.000000" xmlns="http://www.w3.org/2000/svg" xmlns:xlink="http://www.w3.org/1999/xlink" id="Icons_House" overflow="hidden"><path d=" M 72.000000 34.799999 L 72.000000 18.000000 L 64.000000 18.000000 L 64.000000 27.200001 L 48.000000 12.000000 L 48.000000 12.000000 L 6.000000 52.000000 L 10.500000 55.799999 L 48.000000 20.200001 L 48.000000 20.200001 L 85.500000 55.799999 L 90.000000 52.000000 Z" stroke="none" stroke-width="1.000000" stroke-linecap="butt" fill="#00FFFB" fill-opacity="1.000000"/><path d=" M 18.000000 54.299999 L 18.000000 84.000000 L 42.000000 84.000000 L 42.000000 59.000000 L 54.000000 59.000000 L 54.000000 84.000000 L 78.000000 84.000000 L 78.000000 54.299999 L 48.000000 25.799999 L 18.000000 54.299999 Z M 36.000000 71.000000 L 24.000000 71.000000 L 24.000000 59.000000 L 36.000000 59.000000 L 36.000000 71.000000 Z M 60.000000 59.000000 L 72.000000 59.000000 L 72.000000 71.000000 L 60.000000 71.000000 L 60.000000 59.000000 Z" stroke="none" stroke-width="1.000000" stroke-linecap="butt" fill="#00FFFB" fill-opacity="1.000000"/></svg>