<?xml version="1.0" standalone="yes"?><svg xmlns="http://www.w3.org/2000/svg" xmlns:xlink="http://www.w3.org/1999/xlink" version="1.1" viewBox="0.000000 0.000000 96.000000 96.000000" id="Icons_MiningTools" overflow="hidden" style="zoom: 1;"><path stroke="none" stroke-width="1.000000" d="M4.100000,44.200001 L9.600000,29.799999 C9.800000,29.200001 10.200000,28.700001 10.600000,28.299999 L13.500000,25.400000 L12.000000,23.799999 C11.200000,23.000000 11.200000,21.600000 12.000000,20.799999 L15.100000,17.700001 C15.900000,16.900000 17.299999,16.900000 18.100000,17.700001 L19.700001,19.200001 L28.600000,10.300000 C29.400000,9.500000 30.799999,9.500000 31.600000,10.300000 L41.299999,20.100000 C42.099998,20.900000 42.099998,22.299999 41.299999,23.100000 L32.700001,31.799999 L82.500000,79.400002 C83.300003,80.199997 83.300003,81.599998 82.500000,82.400002 L76.599998,88.300003 C75.800003,89.099998 74.400002,89.099998 73.599998,88.300003 L26.000000,38.500000 L23.500000,41.000000 C23.000000,41.500000 22.400000,41.799999 21.799999,42.000000 L6.800000,46.900002 C6.000000,47.099998 5.200000,46.900002 4.600000,46.299999 C4.000000,45.799999 3.800000,44.900002 4.100000,44.200001  Z " fill="#00FFFB" stroke-linecap="butt" fill-opacity="1.000000"></path><path stroke="none" stroke-width="1.000000" d="M64.099998,28.400000 L51.099998,19.799999 C50.599998,19.400000 50.299999,18.900000 50.200001,18.299999 C50.200001,17.700001 50.400002,17.100000 50.799999,16.600000 L59.799999,7.700000 C60.500000,7.000000 61.700001,6.900000 62.500000,7.500000 L77.800003,17.700001 C77.900002,17.700001 78.000000,17.799999 78.000000,17.900000 L78.099998,18.000000 L81.000000,20.900000 L81.199997,21.100000 L81.300003,21.200001 L81.300003,21.299999 L91.599998,36.299999 C92.199997,37.099998 92.099998,38.299999 91.400002,39.000000 L82.400002,47.900002 C82.000000,48.299999 81.300003,48.599998 80.699997,48.500000 C80.099998,48.400002 79.500000,48.099998 79.099998,47.599998 L70.699997,35.000000 L57.099998,49.200001 L49.700001,42.099998 L64.099998,28.400000  Z " fill="#00FFFB" stroke-linecap="butt" fill-opacity="1.000000"></path><path stroke="none" stroke-width="1.000000" d="M19.700001,88.300003 C18.900000,89.099998 17.500000,89.099998 16.700001,88.300003 L10.700000,82.300003 C9.900000,81.500000 9.900000,80.099998 10.700000,79.300003 L36.000000,55.200001 L43.700001,63.200001 L19.700001,88.300003  Z " fill="#00FFFB" stroke-linecap="butt" fill-opacity="1.000000"></path></svg>