<?xml version="1.0" standalone="yes"?><svg xmlns="http://www.w3.org/2000/svg" xmlns:xlink="http://www.w3.org/1999/xlink" version="1.1" viewBox="0.000000 0.000000 96.000000 96.000000" id="Icons_SmartPhone" overflow="hidden" style="zoom: 1;"><path stroke="none" stroke-width="1.000000" d="M66.000000,80.000000 L30.000000,80.000000 L30.000000,16.000000 L66.000000,16.000000 L66.000000,80.000000  Z M44.000000,8.000000 L52.000000,8.000000 C53.099998,8.000000 54.000000,8.900000 54.000000,10.000000 C54.000000,11.100000 53.099998,12.000000 52.000000,12.000000 L44.000000,12.000000 C42.900002,12.000000 42.000000,11.100000 42.000000,10.000000 C42.000000,8.900000 42.900002,8.000000 44.000000,8.000000  Z M70.000000,4.000000 L26.000000,4.000000 C24.900000,4.000000 24.000000,4.900000 24.000000,6.000000 L24.000000,90.000000 C24.000000,91.099998 24.900000,92.000000 26.000000,92.000000 L70.000000,92.000000 C71.099998,92.000000 72.000000,91.099998 72.000000,90.000000 L72.000000,6.000000 C72.000000,4.900000 71.099998,4.000000 70.000000,4.000000  Z " fill="#fefd02" stroke-linecap="butt" fill-opacity="1.000000"></path></svg>