<svg version="1.1" viewBox="0.000000 0.000000 96.000000 96.000000" xmlns="http://www.w3.org/2000/svg" xmlns:xlink="http://www.w3.org/1999/xlink" id="Icons_HappyFaceOutline" overflow="hidden"><circle cx="32.000000" cy="42.000000" r="6.000000" stroke="none" stroke-width="1.000000" stroke-linecap="butt" fill="#AFABAB" fill-opacity="1.000000"/><circle cx="64.000000" cy="42.000000" r="6.000000" stroke="none" stroke-width="1.000000" stroke-linecap="butt" fill="#AFABAB" fill-opacity="1.000000"/><path d=" M 66.199997 61.000000 C 65.500000 61.000000 64.900002 61.299999 64.599998 61.799999 C 60.799999 66.800003 54.799999 69.900002 48.000000 69.900002 C 41.200001 69.900002 35.299999 66.800003 31.400000 61.799999 C 31.000000 61.299999 30.400000 61.000000 29.799999 61.000000 C 28.700001 61.000000 27.799999 61.900002 27.799999 63.000000 C 27.799999 63.400002 27.900000 63.799999 28.200001 64.199997 C 32.799999 70.199997 39.900002 74.000000 48.000000 74.000000 C 56.099998 74.000000 63.200001 70.199997 67.800003 64.199997 C 68.000000 63.900002 68.199997 63.500000 68.199997 63.000000 C 68.199997 61.900002 67.300003 61.000000 66.199997 61.000000 Z" stroke="none" stroke-width="1.000000" stroke-linecap="butt" fill="#AFABAB" fill-opacity="1.000000"/><g><path d=" M 48.000000 14.000000 C 66.699997 14.000000 82.000000 29.299999 82.000000 48.000000 C 82.000000 66.699997 66.699997 82.000000 48.000000 82.000000 C 29.299999 82.000000 14.000000 66.699997 14.000000 48.000000 C 14.000000 29.299999 29.299999 14.000000 48.000000 14.000000 M 48.000000 10.000000 C 27.000000 10.000000 10.000000 27.000000 10.000000 48.000000 C 10.000000 69.000000 27.000000 86.000000 48.000000 86.000000 C 69.000000 86.000000 86.000000 69.000000 86.000000 48.000000 C 86.000000 27.000000 69.000000 10.000000 48.000000 10.000000 L 48.000000 10.000000 Z" stroke="none" stroke-width="1.000000" stroke-linecap="butt" fill="#AFABAB" fill-opacity="1.000000"/></g><g id="Icons_Layer_2"></g><g id="Icons_Layer_3" display="none"></g></svg>