<svg version="1.1" viewBox="0.000000 0.000000 96.000000 96.000000" xmlns="http://www.w3.org/2000/svg" xmlns:xlink="http://www.w3.org/1999/xlink" id="Icons_ThumbsUpSign" overflow="hidden"><path d=" M 88.000000 47.000000 C 88.000000 43.700001 85.300003 41.000000 82.000000 41.000000 L 63.000000 41.000000 C 61.400002 41.000000 60.099998 39.700001 60.000000 38.099998 C 60.099998 36.299999 63.000000 32.700001 63.000000 19.000000 C 63.000000 15.700000 60.299999 13.000000 57.000000 13.000000 C 53.700001 13.000000 51.000000 15.700000 51.000000 19.000000 C 51.000000 34.200001 33.299999 42.799999 33.000000 43.000000 L 33.000000 75.000000 C 40.099998 75.000000 40.599998 83.000000 54.000000 83.000000 C 58.500000 83.000000 72.000000 83.000000 72.000000 83.000000 C 75.300003 83.000000 78.000000 80.300003 78.000000 77.000000 C 78.000000 75.400002 77.400002 74.000000 76.400002 73.000000 C 76.599998 73.000000 76.800003 73.000000 77.000000 73.000000 C 80.300003 73.000000 83.000000 70.300003 83.000000 67.000000 C 83.000000 65.400002 82.400002 63.900002 81.300003 62.799999 C 84.000000 62.200001 86.000000 59.799999 86.000000 57.000000 C 86.000000 55.299999 85.300003 53.700001 84.099998 52.599998 C 86.400002 51.799999 88.000000 49.599998 88.000000 47.000000 Z" stroke="none" stroke-width="1.000000" stroke-linecap="butt" fill="#AFABAB" fill-opacity="1.000000"/><path d=" M 23.000000 38.000000 L 8.000000 38.000000 L 8.000000 80.000000 L 23.000000 80.000000 C 25.200001 80.000000 27.000000 78.199997 27.000000 76.000000 L 27.000000 42.000000 C 27.000000 39.799999 25.200001 38.000000 23.000000 38.000000 Z" stroke="none" stroke-width="1.000000" stroke-linecap="butt" fill="#AFABAB" fill-opacity="1.000000"/></svg>