<?xml version="1.0" standalone="yes"?><svg xmlns="http://www.w3.org/2000/svg" xmlns:xlink="http://www.w3.org/1999/xlink" version="1.1" viewBox="0.000000 0.000000 96.000000 96.000000" id="Icons_EarthGlobeEuropeAfrica" overflow="hidden" style="zoom: 1;"><g><path stroke="none" stroke-width="1.000000" d="M48.000000,10.000000 C27.000000,10.000000 10.000000,27.000000 10.000000,48.000000 C10.000000,69.000000 27.000000,86.000000 48.000000,86.000000 C69.000000,86.000000 86.000000,69.000000 86.000000,48.000000 C86.000000,27.000000 69.000000,10.000000 48.000000,10.000000  Z M48.000000,82.000000 C29.299999,82.000000 14.000000,66.699997 14.000000,48.000000 C14.000000,29.299999 29.299999,14.000000 48.000000,14.000000 C52.900002,14.000000 57.500000,15.000000 61.700001,16.900000 L58.500000,19.500000 C58.099998,19.799999 57.700001,20.000000 57.200001,20.000000 L55.299999,20.000000 C55.099998,20.000000 54.799999,20.000000 54.599998,19.900000 C54.599998,19.900000 49.700001,17.000000 46.900002,17.000000 C44.200001,17.000000 39.799999,18.700001 37.900002,20.000000 C35.000000,21.900000 38.099998,22.799999 38.799999,23.000000 C38.900002,23.000000 39.000000,23.000000 39.000000,23.000000 L41.799999,23.000000 C42.500000,23.000000 43.099998,22.700001 43.500000,22.100000 L44.599998,20.400000 C44.799999,20.100000 45.099998,20.000000 45.400002,20.000000 L47.000000,20.000000 L44.900002,23.500000 C44.400002,24.400000 43.400002,25.000000 42.299999,25.000000 L39.599998,25.000000 C39.200001,25.000000 38.799999,25.100000 38.500000,25.299999 L36.000000,27.000000 L34.000000,27.000000 C33.400002,27.000000 33.000000,27.400000 33.000000,28.000000 L33.000000,29.000000 C33.000000,29.600000 32.599998,30.000000 32.000000,30.000000 L31.100000,30.000000 C30.400000,30.000000 29.799999,30.299999 29.400000,30.900000 L28.200001,32.799999 C28.100000,33.000000 28.000000,33.200001 28.000000,33.400002 L28.000000,34.000000 C28.000000,34.599998 28.400000,35.000000 29.000000,35.000000 L32.599998,35.000000 C32.900002,35.000000 33.099998,34.900002 33.299999,34.700001 L36.400002,31.600000 C36.799999,31.200001 37.299999,31.000000 37.799999,31.000000 L38.200001,31.000000 C38.700001,31.000000 39.099998,31.299999 39.200001,31.799999 L39.799999,34.299999 C39.900002,34.700001 40.299999,35.099998 40.799999,35.099998 L41.000000,35.099998 C41.599998,35.099998 42.000000,34.700001 42.000000,34.099998 L42.000000,31.500000 C42.000000,31.200001 42.099998,31.000000 42.299999,30.799999 L43.000000,30.000000 L43.799999,32.299999 C43.900002,32.700001 44.299999,33.000000 44.700001,33.000000 L45.599998,33.000000 C45.900002,33.000000 46.099998,32.900002 46.299999,32.700001 L46.700001,32.299999 C46.900002,32.099998 47.099998,32.000000 47.400002,32.000000 L48.000000,32.000000 C48.599998,32.000000 49.000000,32.400002 49.000000,33.000000 L49.000000,34.000000 C49.000000,34.599998 49.400002,35.000000 50.000000,35.000000 L53.599998,35.000000 C54.299999,35.000000 54.799999,35.700001 54.500000,36.299999 L54.200001,37.200001 C54.000000,37.700001 53.599998,38.000000 53.099998,37.900002 L48.299999,37.099998 C48.099998,37.099998 47.799999,37.099998 47.599998,37.099998 L43.500000,37.900002 C43.099998,38.000000 42.799999,37.900002 42.400002,37.799999 C41.099998,37.299999 37.500000,36.000000 36.000000,36.000000 C24.100000,36.000000 24.000000,44.000000 24.000000,47.000000 C24.000000,51.000000 26.299999,54.000000 30.000000,54.000000 C34.400002,54.000000 40.000000,53.799999 40.000000,62.000000 L40.000000,68.199997 C40.000000,69.400002 40.400002,70.500000 41.200001,71.400002 L44.099998,74.900002 C44.700001,75.599998 45.500000,76.000000 46.400002,76.000000 L48.799999,76.000000 C49.599998,76.000000 50.400002,75.699997 50.900002,75.099998 L53.299999,72.699997 C53.799999,72.199997 54.099998,71.699997 54.400002,71.099998 L56.400002,67.000000 C56.700001,66.300003 56.900002,65.500000 56.900002,64.800003 L56.900002,60.200001 C56.900002,59.400002 57.200001,58.599998 57.799999,58.099998 L63.099998,52.799999 C63.500000,52.400002 63.500000,51.599998 63.000000,51.299999 C63.000000,51.299999 57.000000,47.900002 53.700001,41.500000 C53.400002,40.799999 53.799999,40.000000 54.599998,40.000000 L55.000000,40.000000 L60.700001,47.400002 C61.400002,48.299999 62.700001,48.400002 63.599998,47.700001 L66.900002,44.900002 C67.400002,44.500000 67.400002,43.599998 66.800003,43.299999 L63.799999,41.500000 C63.400002,41.200001 63.200001,40.700001 63.400002,40.200001 L63.500000,40.000000 C63.799999,39.500000 64.400002,39.299999 64.900002,39.599998 L68.500000,41.799999 C68.800003,42.000000 69.199997,42.099998 69.500000,42.099998 L70.599998,42.099998 C71.400002,42.099998 72.099998,42.599998 72.400002,43.299999 L75.300003,49.900002 C75.599998,50.599998 76.300003,51.099998 77.099998,51.099998 L77.099998,51.099998 C78.000000,51.099998 78.800003,50.299999 78.800003,49.400002 L78.800003,46.599998 C78.800003,46.299999 78.900002,46.000000 79.199997,45.799999 L81.500000,44.000000 C81.699997,45.299999 81.800003,46.700001 81.800003,48.099998 C82.000000,66.699997 66.699997,82.000000 48.000000,82.000000  Z " fill="#fefd02" stroke-linecap="butt" fill-opacity="1.000000"></path><path stroke="none" stroke-width="1.000000" d="M30.000000,27.000000 L30.000000,28.000000 L31.000000,28.000000 C31.600000,28.000000 32.000000,27.600000 32.000000,27.000000 L32.000000,26.000000 L33.000000,26.000000 L33.000000,24.400000 C33.000000,24.100000 32.900002,23.900000 32.700001,23.700001 L31.700001,22.700001 C31.299999,22.299999 30.700001,22.299999 30.299999,22.700001 L28.700001,24.299999 C28.299999,24.700001 28.299999,25.299999 28.700001,25.700001 L30.000000,27.000000  Z " fill="#fefd02" stroke-linecap="butt" fill-opacity="1.000000"></path></g></svg>