<svg version="1.1" viewBox="0.000000 0.000000 96.000000 96.000000" xmlns="http://www.w3.org/2000/svg" xmlns:xlink="http://www.w3.org/1999/xlink" id="Icons_Hammer" overflow="hidden"><path d=" M 91.300003 34.000000 L 87.500000 30.200001 C 86.599998 29.299999 85.300003 29.299999 84.400002 30.100000 C 83.599998 30.900000 82.300003 31.000000 81.400002 30.200001 C 80.500000 29.299999 80.500000 27.799999 81.400002 26.900000 C 82.199997 26.000000 82.099998 24.700001 81.300003 23.900000 L 72.000000 14.700000 C 66.400002 9.100000 55.200001 7.200000 44.200001 10.200000 C 44.099998 10.200000 44.000000 10.300000 43.900002 10.300000 C 43.500000 10.600000 43.200001 11.000000 43.299999 11.500000 C 43.400002 12.000000 43.700001 12.400000 44.200001 12.600000 C 45.599998 13.100000 48.200001 13.900000 48.200001 13.900000 C 54.299999 16.000000 60.400002 24.000000 61.200001 25.600000 L 32.299999 54.299999 L 31.500000 53.500000 C 30.600000 52.599998 29.200001 52.599998 28.400000 53.500000 L 5.200000 76.800003 L 5.300000 76.900002 C 3.400000 79.500000 3.700000 83.000000 6.000000 85.300003 C 8.300000 87.500000 11.800000 87.900002 14.400000 86.000000 L 14.500000 86.099998 L 37.799999 62.799999 C 38.700001 61.900002 38.700001 60.500000 37.799999 59.700001 L 37.000000 58.900002 L 65.699997 30.200001 L 70.300003 34.799999 C 71.199997 35.700001 72.500000 35.700001 73.400002 34.900002 C 74.199997 34.099998 75.500000 34.000000 76.400002 34.799999 C 77.300003 35.700001 77.300003 37.200001 76.400002 38.099998 C 75.599998 39.000000 75.699997 40.299999 76.500000 41.099998 L 80.400002 44.900002 C 81.300003 45.799999 82.699997 45.799999 83.599998 44.900002 L 91.300003 37.200001 C 91.699997 36.799999 92.000000 36.200001 92.000000 35.599998 C 92.000000 35.000000 91.800003 34.400002 91.300003 34.000000 Z" stroke="none" stroke-width="1.000000" stroke-linecap="butt" fill="#00FFFB" fill-opacity="1.000000"/></svg>