<?xml version="1.0" standalone="yes"?><svg xmlns="http://www.w3.org/2000/svg" xmlns:xlink="http://www.w3.org/1999/xlink" version="1.1" viewBox="0.000000 0.000000 96.000000 96.000000" id="Icons_House" overflow="hidden" style="zoom: 1;"><path stroke="none" stroke-width="1.000000" d="M72.000000,34.799999 L72.000000,18.000000 L64.000000,18.000000 L64.000000,27.200001 L48.000000,12.000000 L48.000000,12.000000 L6.000000,52.000000 L10.500000,55.799999 L48.000000,20.200001 L48.000000,20.200001 L85.500000,55.799999 L90.000000,52.000000  Z " fill="#fefd02" stroke-linecap="butt" fill-opacity="1.000000"></path><path stroke="none" stroke-width="1.000000" d="M18.000000,54.299999 L18.000000,84.000000 L42.000000,84.000000 L42.000000,59.000000 L54.000000,59.000000 L54.000000,84.000000 L78.000000,84.000000 L78.000000,54.299999 L48.000000,25.799999 L18.000000,54.299999  Z M36.000000,71.000000 L24.000000,71.000000 L24.000000,59.000000 L36.000000,59.000000 L36.000000,71.000000  Z M60.000000,59.000000 L72.000000,59.000000 L72.000000,71.000000 L60.000000,71.000000 L60.000000,59.000000  Z " fill="#fefd02" stroke-linecap="butt" fill-opacity="1.000000"></path></svg>